<svg id="Layer_1" data-name="Layer 1" xmlns="http://www.w3.org/2000/svg" viewBox="0 0 1350.86 156.8"><defs><style>.cls-1{fill:#000;}</style></defs><title>btone text wider</title><path class="cls-1" d="M101.23,105.15a27.76,27.76,0,0,1-2.19,11,30.8,30.8,0,0,1-5.95,9.15,28.31,28.31,0,0,1-8.84,6.34,25.28,25.28,0,0,1-10.72,2.35H22.06V22.86H71.18a21.94,21.94,0,0,1,10.48,2.5,26.19,26.19,0,0,1,8,6.49,29.8,29.8,0,0,1,5.08,9.07,30.58,30.58,0,0,1,1.8,10.25,29.15,29.15,0,0,1-4.3,15.49A25.7,25.7,0,0,1,80.57,77a27.77,27.77,0,0,1,8.53,4.22,30.26,30.26,0,0,1,6.57,6.57A28.38,28.38,0,0,1,99.82,96,30.22,30.22,0,0,1,101.23,105.15ZM25.19,26V76.37H70.25a20.07,20.07,0,0,0,9.39-2.19,23.79,23.79,0,0,0,7.28-5.79,27.92,27.92,0,0,0,4.77-8.06,25.23,25.23,0,0,0,1.72-9.15,27.83,27.83,0,0,0-1.64-9.54,27.13,27.13,0,0,0-4.54-8.06,21,21,0,0,0-7-5.55,20.19,20.19,0,0,0-9-2ZM98.1,105.15a26.31,26.31,0,0,0-1.8-9.62,27.85,27.85,0,0,0-4.93-8.21,23.46,23.46,0,0,0-7.43-5.71,20.85,20.85,0,0,0-9.31-2.11H25.19v51.32H73.53a21.51,21.51,0,0,0,9.62-2.19,26.77,26.77,0,0,0,13.06-14A24.9,24.9,0,0,0,98.1,105.15Z"/><path class="cls-1" d="M171.48,133.94V22.86h45.22a27.62,27.62,0,0,1,12.52,2.89,32,32,0,0,1,9.94,7.67,36.62,36.62,0,0,1,6.49,10.8A33.58,33.58,0,0,1,248,56.5a38,38,0,0,1-2,12.36,34,34,0,0,1-5.79,10.56,30.46,30.46,0,0,1-9,7.51,27.79,27.79,0,0,1-11.5,3.36l28.16,43.65h-3.75L215.91,90.29H174.6v43.65Zm3.13-46.78h43.18a23.63,23.63,0,0,0,11.27-2.66,27.65,27.65,0,0,0,8.53-7,31.35,31.35,0,0,0,5.4-9.78,34.5,34.5,0,0,0,1.88-11.26,30.5,30.5,0,0,0-2.19-11.42,32,32,0,0,0-6-9.7,30.41,30.41,0,0,0-9-6.81,24.17,24.17,0,0,0-11-2.58H174.6Z"/><path class="cls-1" d="M362.51,131.6q12.52,0,20.73-4.69a36.57,36.57,0,0,0,13-12.2A50.37,50.37,0,0,0,403,97.64a95.65,95.65,0,0,0,2-19.25V22.86H408V78.4a97.57,97.57,0,0,1-2.27,21.28,50.86,50.86,0,0,1-7.59,17.91,39.42,39.42,0,0,1-14,12.44q-8.68,4.69-21.51,4.69-13.14,0-21.9-4.85a39,39,0,0,1-14-12.83A53.06,53.06,0,0,1,319.33,99a96.61,96.61,0,0,1-2.19-20.58V22.86h3.13V78.4a97,97,0,0,0,2,19.56A49.33,49.33,0,0,0,329,115a36.07,36.07,0,0,0,13,12Q350.15,131.6,362.51,131.6Z"/><path class="cls-1" d="M548.23,37.56q-6.57-7.2-13.69-9.86a48.58,48.58,0,0,0-17-2.66,62.08,62.08,0,0,0-16.35,1.88A30.67,30.67,0,0,0,490,32.32a21.13,21.13,0,0,0-6.42,8.37,28.07,28.07,0,0,0-2,11,21.74,21.74,0,0,0,2,9.94,17.46,17.46,0,0,0,6.26,6.73A41.63,41.63,0,0,0,500.74,73q6.65,2,15.88,3.83t16.74,4.07a50.81,50.81,0,0,1,12.75,5.48,23.57,23.57,0,0,1,8.06,8.14,24,24,0,0,1,2.82,12.2q0,13.61-10.4,20.81t-28.71,7.2A64,64,0,0,1,494,130.58a57.32,57.32,0,0,1-19.32-13.06l2.35-2a52,52,0,0,0,18.38,12.67A61.31,61.31,0,0,0,518,132.07q16.58,0,26.21-6.18t9.62-18.7a23.09,23.09,0,0,0-2.19-10.56,20.21,20.21,0,0,0-6.73-7.43,42.9,42.9,0,0,0-11.58-5.32,161.79,161.79,0,0,0-16.59-4.07q-9.23-1.72-16.35-3.68a46,46,0,0,1-12-5A20.46,20.46,0,0,1,481,63.46a23.87,23.87,0,0,1-2.5-11.5,28.47,28.47,0,0,1,2.74-12.75A26.07,26.07,0,0,1,489,29.82,35.82,35.82,0,0,1,501.22,24a60.61,60.61,0,0,1,16-2,51.38,51.38,0,0,1,18.54,3.05,38.36,38.36,0,0,1,14.47,10.25Z"/><path class="cls-1" d="M708.6,22.86V133.94h-3.13V78.71H628.34v55.23h-3.13V22.86h3.13V75.58h77.13V22.86Z"/><path class="cls-1" d="M862.09,26H819.53v108H816.4V26H773.84V22.86h88.24Z"/><path class="cls-1" d="M966,134.73a45.45,45.45,0,0,1-21-4.85,54.83,54.83,0,0,1-16.35-12.67,56.61,56.61,0,0,1-10.64-18,59.61,59.61,0,0,1-3.76-20.81,57.75,57.75,0,0,1,4-21.28,59.47,59.47,0,0,1,11-18,52.66,52.66,0,0,1,16.43-12.44A46,46,0,0,1,966,22.07a45,45,0,0,1,21,4.93,53.56,53.56,0,0,1,16.35,12.91A59.67,59.67,0,0,1,1013.85,58a58.83,58.83,0,0,1-11.19,59.77,53.56,53.56,0,0,1-16.35,12.36A45.48,45.48,0,0,1,966,134.73ZM917.32,78.4A55.41,55.41,0,0,0,921,98.35a56.87,56.87,0,0,0,10.09,17.05,47.93,47.93,0,0,0,15.33,11.81A43.74,43.74,0,0,0,966,131.6,42.71,42.71,0,0,0,985.77,127a49.2,49.2,0,0,0,15.33-12.12A56.56,56.56,0,0,0,1011,97.8a56,56,0,0,0-10.41-56.4,50.11,50.11,0,0,0-15.41-11.81,44.44,44.44,0,0,0-39,.23,50.15,50.15,0,0,0-15.41,12.13A57,57,0,0,0,917.32,78.4Z"/><path class="cls-1" d="M1090.67,29v105h-3.13V22.86h2.35l85,106.55V22.86H1178V133.94h-3.6Z"/><path class="cls-1" d="M1328.8,130.81v3.13h-72.91V22.86h71.5V26H1259v49.6h59.92v3.13H1259v52.1Z"/></svg>