<svg id="Layer_1" data-name="Layer 1" xmlns="http://www.w3.org/2000/svg" viewBox="0 0 1671.18 156.8"><defs><style>.cls-1{fill:#000;}</style></defs><title>btone text v wide</title><path class="cls-1" d="M104.93,105.15a27.76,27.76,0,0,1-2.19,11,30.8,30.8,0,0,1-5.95,9.15A28.31,28.31,0,0,1,88,131.6a25.28,25.28,0,0,1-10.72,2.35H25.76V22.86H74.89a21.94,21.94,0,0,1,10.48,2.5,26.19,26.19,0,0,1,8,6.49,29.8,29.8,0,0,1,5.08,9.07,30.58,30.58,0,0,1,1.8,10.25,29.14,29.14,0,0,1-4.3,15.49A25.7,25.7,0,0,1,84.27,77a27.79,27.79,0,0,1,8.53,4.22,30.26,30.26,0,0,1,6.57,6.57A28.38,28.38,0,0,1,103.52,96,30.22,30.22,0,0,1,104.93,105.15ZM28.89,26V76.37H73.95a20.07,20.07,0,0,0,9.39-2.19,23.78,23.78,0,0,0,7.28-5.79,27.92,27.92,0,0,0,4.77-8.06,25.23,25.23,0,0,0,1.72-9.15,27.83,27.83,0,0,0-1.64-9.54,27.12,27.12,0,0,0-4.54-8.06,21,21,0,0,0-7-5.55,20.18,20.18,0,0,0-9-2Zm72.91,79.17a26.31,26.31,0,0,0-1.8-9.62,27.85,27.85,0,0,0-4.93-8.21,23.46,23.46,0,0,0-7.43-5.71,20.85,20.85,0,0,0-9.31-2.11H28.89v51.32H77.23a21.51,21.51,0,0,0,9.62-2.19,26.77,26.77,0,0,0,13.06-14A24.9,24.9,0,0,0,101.8,105.15Z"/><path class="cls-1" d="M214.29,133.94V22.86h45.22A27.62,27.62,0,0,1,272,25.75,32,32,0,0,1,282,33.42a36.63,36.63,0,0,1,6.49,10.8A33.58,33.58,0,0,1,290.8,56.5a38,38,0,0,1-2,12.36A34,34,0,0,1,283,79.42a30.46,30.46,0,0,1-9,7.51,27.79,27.79,0,0,1-11.5,3.36l28.16,43.65h-3.75L258.73,90.29H217.42v43.65Zm3.13-46.78H260.6a23.63,23.63,0,0,0,11.27-2.66,27.65,27.65,0,0,0,8.53-7,31.34,31.34,0,0,0,5.4-9.78,34.5,34.5,0,0,0,1.88-11.27,30.5,30.5,0,0,0-2.19-11.42,32,32,0,0,0-6-9.7,30.4,30.4,0,0,0-9-6.81,24.17,24.17,0,0,0-11-2.58H217.42Z"/><path class="cls-1" d="M444.45,131.6q12.52,0,20.73-4.69a36.57,36.57,0,0,0,13-12.2,50.37,50.37,0,0,0,6.73-17.05,95.65,95.65,0,0,0,2-19.25V22.86H490V78.4a97.57,97.57,0,0,1-2.27,21.28,50.86,50.86,0,0,1-7.59,17.91,39.42,39.42,0,0,1-14,12.44q-8.68,4.69-21.51,4.69-13.14,0-21.9-4.85a39,39,0,0,1-14-12.83A53.06,53.06,0,0,1,401.26,99a96.61,96.61,0,0,1-2.19-20.58V22.86h3.13V78.4a97,97,0,0,0,2,19.56A49.33,49.33,0,0,0,411,115a36.07,36.07,0,0,0,13,12Q432.08,131.6,444.45,131.6Z"/><path class="cls-1" d="M669.28,37.56q-6.57-7.2-13.69-9.86a48.58,48.58,0,0,0-17-2.66,62.11,62.11,0,0,0-16.35,1.88,30.66,30.66,0,0,0-11.19,5.4,21.13,21.13,0,0,0-6.42,8.37,28.06,28.06,0,0,0-2,11,21.72,21.72,0,0,0,2,9.94,17.45,17.45,0,0,0,6.26,6.73A41.62,41.62,0,0,0,621.79,73q6.65,2,15.88,3.83t16.74,4.07a50.79,50.79,0,0,1,12.75,5.48,23.57,23.57,0,0,1,8.06,8.14,24,24,0,0,1,2.82,12.2q0,13.61-10.41,20.81t-28.71,7.2a64,64,0,0,1-23.86-4.15,57.33,57.33,0,0,1-19.32-13.06l2.35-2a52,52,0,0,0,18.38,12.67,61.32,61.32,0,0,0,22.61,3.91q16.58,0,26.21-6.18t9.62-18.7a23.11,23.11,0,0,0-2.19-10.56A20.21,20.21,0,0,0,666,89.2a42.87,42.87,0,0,0-11.58-5.32,161.77,161.77,0,0,0-16.58-4.07q-9.23-1.72-16.35-3.68a46,46,0,0,1-12-5A20.47,20.47,0,0,1,602,63.46,23.88,23.88,0,0,1,599.5,52a28.48,28.48,0,0,1,2.74-12.75,26.08,26.08,0,0,1,7.82-9.39A35.81,35.81,0,0,1,622.26,24a60.62,60.62,0,0,1,16-2,51.37,51.37,0,0,1,18.54,3.05,38.37,38.37,0,0,1,14.47,10.25Z"/><path class="cls-1" d="M868.76,22.86V133.94h-3.13V78.71H788.5v55.23h-3.13V22.86h3.13V75.58h77.13V22.86Z"/><path class="cls-1" d="M1061.36,26h-42.56v108h-3.13V26H973.12V22.86h88.24Z"/><path class="cls-1" d="M1204.37,134.73a45.45,45.45,0,0,1-21-4.85A54.83,54.83,0,0,1,1167,117.2a56.61,56.61,0,0,1-10.64-18,59.61,59.61,0,0,1-3.76-20.81,57.75,57.75,0,0,1,4-21.28,59.47,59.47,0,0,1,11-18A52.67,52.67,0,0,1,1184,26.69a46,46,0,0,1,20.42-4.62,45,45,0,0,1,21,4.93,53.55,53.55,0,0,1,16.35,12.91A59.68,59.68,0,0,1,1252.25,58a58.83,58.83,0,0,1-11.19,59.77,53.56,53.56,0,0,1-16.35,12.36A45.48,45.48,0,0,1,1204.37,134.73ZM1155.71,78.4a55.41,55.41,0,0,0,3.68,19.95,56.87,56.87,0,0,0,10.09,17.05,47.93,47.93,0,0,0,15.33,11.81,43.74,43.74,0,0,0,19.56,4.38,42.71,42.71,0,0,0,19.79-4.62,49.2,49.2,0,0,0,15.33-12.12,56.56,56.56,0,0,0,9.86-17.05,56.05,56.05,0,0,0-10.41-56.4,50.13,50.13,0,0,0-15.41-11.81,44.44,44.44,0,0,0-39,.23,50.15,50.15,0,0,0-15.41,12.13,57,57,0,0,0-13.46,36.45Z"/><path class="cls-1" d="M1368.18,29v105h-3.13V22.86h2.35l85,106.55V22.86h3.13V133.94h-3.6Z"/><path class="cls-1" d="M1645.43,130.81v3.13h-72.91V22.86H1644V26h-68.37v49.6h59.92v3.13h-59.92v52.1Z"/></svg>