<?xml version="1.0" encoding="utf-8"?>
<!-- Generator: Adobe Illustrator 21.0.0, SVG Export Plug-In . SVG Version: 6.00 Build 0)  -->
<svg version="1.1" id="Layer_1" xmlns="http://www.w3.org/2000/svg" xmlns:xlink="http://www.w3.org/1999/xlink" x="0px" y="0px"
	 viewBox="0 0 1011.2 156.8" style="enable-background:new 0 0 1011.2 156.8;" xml:space="preserve">
<style type="text/css">
	.st0{fill:#000000;}
</style>
<g>
	<path class="st0" d="M92.5,107c0,4.1-0.8,8-2.3,11.7c-1.6,3.7-3.7,6.9-6.4,9.8c-2.7,2.8-5.8,5.1-9.5,6.8c-3.6,1.7-7.4,2.5-11.5,2.5
		h-55V19h52.5c4.1,0,7.9,0.9,11.2,2.7c3.3,1.8,6.2,4.1,8.5,6.9c2.3,2.8,4.2,6.1,5.4,9.7c1.3,3.6,1.9,7.3,1.9,11
		c0,6-1.5,11.5-4.6,16.6c-3.1,5-7.2,8.7-12.5,11c3.3,1,6.4,2.5,9.1,4.5c2.7,2,5.1,4.3,7,7c1.9,2.7,3.4,5.6,4.4,8.8
		C92,100.4,92.5,103.7,92.5,107z M11.2,22.4v53.9h48.2c3.7,0,7-0.8,10-2.3c3-1.6,5.6-3.6,7.8-6.2c2.2-2.6,3.9-5.4,5.1-8.6
		c1.2-3.2,1.8-6.4,1.8-9.8c0-3.6-0.6-7-1.8-10.2c-1.2-3.2-2.8-6.1-4.9-8.6C75.4,28,72.9,26,70,24.6c-3-1.5-6.2-2.2-9.6-2.2H11.2z
		 M89.1,107c0-3.6-0.6-7-1.9-10.3c-1.3-3.3-3-6.2-5.3-8.8c-2.2-2.6-4.9-4.6-7.9-6.1c-3.1-1.5-6.4-2.3-10-2.3H11.2v54.9h51.7
		c3.7,0,7.1-0.8,10.3-2.3c3.2-1.6,6-3.6,8.4-6.2c2.4-2.6,4.3-5.5,5.6-8.8C88.5,113.9,89.1,110.5,89.1,107z"/>
	<path class="st0" d="M117.4,137.8V19h48.3c4.8,0,9.3,1,13.4,3.1c4.1,2.1,7.7,4.8,10.6,8.2c3,3.4,5.3,7.2,6.9,11.5
		c1.7,4.3,2.5,8.7,2.5,13.1c0,4.6-0.7,9-2.2,13.2c-1.5,4.2-3.5,8-6.2,11.3c-2.7,3.3-5.9,6-9.6,8c-3.7,2.1-7.8,3.3-12.3,3.6
		l30.1,46.7h-4l-30.1-46.7h-44.2v46.7H117.4z M120.7,87.8h46.2c4.5,0,8.5-0.9,12-2.8c3.6-1.9,6.6-4.4,9.1-7.4
		c2.5-3.1,4.4-6.5,5.8-10.5c1.3-3.9,2-7.9,2-12c0-4.2-0.8-8.3-2.3-12.2c-1.6-3.9-3.7-7.4-6.4-10.4c-2.7-3-5.9-5.4-9.6-7.3
		c-3.7-1.8-7.6-2.8-11.7-2.8h-45V87.8z"/>
	<path class="st0" d="M271.4,135.3c8.9,0,16.3-1.7,22.2-5c5.9-3.3,10.5-7.7,13.9-13c3.4-5.4,5.8-11.4,7.2-18.2
		c1.4-6.8,2.1-13.7,2.1-20.6V19h3.3v59.4c0,7.9-0.8,15.5-2.4,22.7c-1.6,7.2-4.3,13.6-8.1,19.2c-3.8,5.5-8.8,10-15,13.3
		c-6.2,3.3-13.9,5-23,5c-9.4,0-17.2-1.7-23.4-5.2c-6.2-3.5-11.2-8-15-13.7c-3.7-5.7-6.4-12.1-7.9-19.3c-1.6-7.2-2.3-14.5-2.3-22V19
		h3.3v59.4c0,7.1,0.7,14.1,2.1,20.9c1.4,6.8,3.8,12.9,7.3,18.2c3.5,5.4,8.1,9.6,13.9,12.9C255.3,133.7,262.6,135.3,271.4,135.3z"/>
	<path class="st0" d="M419.8,34.8c-4.7-5.1-9.6-8.6-14.6-10.5c-5.1-1.9-11.1-2.8-18.1-2.8c-6.8,0-12.6,0.7-17.5,2
		c-4.9,1.3-8.8,3.3-12,5.8c-3.1,2.5-5.4,5.5-6.9,8.9c-1.4,3.5-2.2,7.4-2.2,11.7c0,4.2,0.7,7.8,2.2,10.6c1.4,2.8,3.7,5.2,6.7,7.2
		c3,2,6.9,3.6,11.6,5c4.7,1.4,10.4,2.8,17,4.1c6.6,1.3,12.5,2.8,17.9,4.3c5.4,1.6,9.9,3.5,13.6,5.9c3.7,2.3,6.6,5.2,8.6,8.7
		c2,3.5,3,7.8,3,13c0,9.7-3.7,17.1-11.1,22.2c-7.4,5.1-17.6,7.7-30.7,7.7c-9.6,0-18.1-1.5-25.5-4.4c-7.4-3-14.3-7.6-20.7-14l2.5-2.2
		c6,6.2,12.6,10.8,19.7,13.5c7.1,2.8,15.1,4.2,24.2,4.2c11.8,0,21.2-2.2,28-6.6c6.9-4.4,10.3-11.1,10.3-20c0-4.5-0.8-8.2-2.3-11.3
		c-1.6-3.1-4-5.7-7.2-7.9c-3.2-2.2-7.4-4.1-12.4-5.7c-5-1.6-10.9-3-17.7-4.3c-6.6-1.2-12.4-2.5-17.5-3.9c-5.1-1.4-9.4-3.2-12.9-5.4
		c-3.5-2.2-6.2-4.9-7.9-8.2c-1.8-3.3-2.7-7.4-2.7-12.3c0-5.1,1-9.7,2.9-13.6c2-4,4.7-7.3,8.4-10c3.6-2.7,8-4.8,13-6.2
		c5.1-1.4,10.8-2.1,17.1-2.1c7.6,0,14.2,1.1,19.8,3.3c5.6,2.2,10.8,5.8,15.5,11L419.8,34.8z"/>
	<path class="st0" d="M541.1,19v118.8h-3.3v-59h-82.5v59h-3.3V19h3.3v56.4h82.5V19H541.1z"/>
	<path class="st0" d="M655,22.4h-45.5v115.4h-3.3V22.4h-45.5V19H655V22.4z"/>
	<path class="st0" d="M715.8,138.6c-8.3,0-15.8-1.7-22.5-5.2c-6.7-3.5-12.6-8-17.5-13.5c-4.9-5.6-8.7-12-11.4-19.2
		c-2.7-7.2-4-14.7-4-22.2c0-7.9,1.4-15.5,4.3-22.7c2.8-7.2,6.7-13.7,11.7-19.2c5-5.6,10.8-10,17.6-13.3c6.7-3.3,14-4.9,21.8-4.9
		c8.1,0,15.6,1.8,22.4,5.3c6.8,3.5,12.6,8.1,17.5,13.8c4.8,5.7,8.6,12.1,11.3,19.3c2.7,7.2,4,14.5,4,21.8c0,8-1.4,15.7-4.3,22.9
		c-2.8,7.3-6.7,13.6-11.7,19.1c-5,5.5-10.8,9.9-17.5,13.2C730.9,137,723.7,138.6,715.8,138.6z M663.8,78.4c0,7.4,1.3,14.5,3.9,21.3
		c2.6,6.9,6.2,12.9,10.8,18.2c4.6,5.3,10,9.5,16.4,12.6c6.4,3.1,13.3,4.7,20.9,4.7c7.7,0,14.7-1.6,21.2-4.9
		c6.4-3.3,11.9-7.6,16.4-13c4.5-5.4,8-11.4,10.5-18.2c2.5-6.8,3.8-13.7,3.8-20.7c0-7.4-1.3-14.5-3.9-21.3c-2.6-6.9-6.3-12.9-11-18.2
		c-4.7-5.3-10.2-9.5-16.5-12.6c-6.3-3.1-13.1-4.7-20.5-4.7c-7.7,0-14.7,1.6-21.2,4.9c-6.4,3.3-11.9,7.6-16.5,13
		c-4.6,5.4-8.1,11.4-10.6,18.2C665.1,64.5,663.8,71.4,663.8,78.4z"/>
	<path class="st0" d="M799,25.6v112.2h-3.3V19h2.5L889,132.9V19h3.3v118.8h-3.8L799,25.6z"/>
	<path class="st0" d="M1003.4,134.5v3.3h-77.9V19h76.4v3.3h-73.1v53h64.1v3.3h-64.1v55.7H1003.4z"/>
</g>
</svg>
